<svg xmlns:xlink="http://www.w3.org/1999/xlink" width="111.063" xmlns="http://www.w3.org/2000/svg" height="84.942" id="screenshot-9e77146f-37c6-800d-8003-ddb0e79a3bc9" viewBox="0 -0.776 111.063 84.942" style="-webkit-print-color-adjust: exact;" fill="none" version="1.1"><g id="shape-9e77146f-37c6-800d-8003-ddb0e79a3bc9" xmlns:xlink="http://www.w3.org/1999/xlink" version="1.1" width="142.49512" height="101.5" rx="0" ry="0" style="fill: rgb(0, 0, 0);"><g id="shape-9e77146f-37c6-800d-8003-ddb0e79cd2fe"><defs id="defs4" rx="0" ry="0" style="fill: rgb(0, 0, 0);"/></g><g id="shape-9e77146f-37c6-800d-8003-ddb0e79e0a3e"><g class="fills" id="fills-9e77146f-37c6-800d-8003-ddb0e79e0a3e"><path rx="0" ry="0" d="M106.563,41.695C106.563,62.666,90.659,79.666,71.041,79.666C51.422,79.666,35.519,62.666,35.519,41.695C35.519,20.724,51.422,3.724,71.041,3.724C90.659,3.724,106.563,20.724,106.563,41.695ZZ" style="fill: none;"/></g><g id="strokes-9e77146f-37c6-800d-8003-ddb0e79e0a3e" class="strokes"><g class="stroke-shape"><path rx="0" ry="0" d="M106.563,41.695C106.563,62.666,90.659,79.666,71.041,79.666C51.422,79.666,35.519,62.666,35.519,41.695C35.519,20.724,51.422,3.724,71.041,3.724C90.659,3.724,106.563,20.724,106.563,41.695ZZ" style="fill: none; stroke-width: 9; stroke: rgb(222, 44, 104); stroke-opacity: 1;"/></g></g></g><g id="shape-9e77146f-37c6-800d-8003-ddb0e79ec15d"><g class="fills" id="fills-9e77146f-37c6-800d-8003-ddb0e79ec15d"><path rx="0" ry="0" d="M98.069,41.695C98.069,57.651,85.968,70.586,71.041,70.586C56.114,70.586,44.013,57.651,44.013,41.695C44.013,25.739,56.114,12.804,71.041,12.804C85.968,12.804,98.069,25.739,98.069,41.695ZZ" style="fill: none;"/></g><g id="strokes-9e77146f-37c6-800d-8003-ddb0e79ec15d" class="strokes"><g class="stroke-shape"><path rx="0" ry="0" d="M98.069,41.695C98.069,57.651,85.968,70.586,71.041,70.586C56.114,70.586,44.013,57.651,44.013,41.695C44.013,25.739,56.114,12.804,71.041,12.804C85.968,12.804,98.069,25.739,98.069,41.695ZZ" style="fill: none; stroke-width: 2; stroke: rgb(222, 44, 104); stroke-opacity: 1;"/></g></g></g><g id="shape-9e77146f-37c6-800d-8003-ddb0e79fce6b"><g class="fills" id="fills-9e77146f-37c6-800d-8003-ddb0e79fce6b"><path rx="0" ry="0" d="M69.444,37.652L58.753,49.079L69.444,60.507L78.711,60.507L71.495,52.794L86.264,52.794L86.264,45.365L71.495,45.365L78.711,37.652L69.444,37.652ZZ" style="fill: rgb(255, 204, 51);"/></g></g><g id="shape-9e77146f-37c6-800d-8003-ddb0e7a07c37" rx="0" ry="0" style="fill: rgb(0, 0, 0);"><g id="shape-9e77146f-37c6-800d-8003-ddb0e7a0d760"><g class="fills" id="fills-9e77146f-37c6-800d-8003-ddb0e7a0d760"><path x="0" y="0" width="142.5" height="101.5" rx="0" ry="0" d="M53.053,52.286C53.053,67.356,41.624,79.572,27.526,79.572C13.429,79.572,2.000,67.356,2.000,52.286C2.000,37.216,13.429,25.000,27.526,25.000C41.624,25.000,53.053,37.216,53.053,52.286ZZ" style="fill: none;"/></g><g id="strokes-9e77146f-37c6-800d-8003-ddb0e7a0d760" class="strokes"><g class="stroke-shape"><path x="0" y="0" width="142.5" height="101.5" rx="0" ry="0" d="M53.053,52.286C53.053,67.356,41.624,79.572,27.526,79.572C13.429,79.572,2.000,67.356,2.000,52.286C2.000,37.216,13.429,25.000,27.526,25.000C41.624,25.000,53.053,37.216,53.053,52.286ZZ" style="fill: none; stroke-width: 2; stroke: rgb(222, 44, 104); stroke-opacity: 1;"/></g></g></g></g><g id="shape-9e77146f-37c6-800d-8003-ddb0e7a17a53" rx="0" ry="0" style="fill: rgb(0, 0, 0);"><g id="shape-9e77146f-37c6-800d-8003-ddb0e7a2384d"><g class="fills" id="fills-9e77146f-37c6-800d-8003-ddb0e7a2384d"><path x="0" y="0" width="170" height="165" rx="0" ry="0" d="M20.558,42.267L26.925,49.073L20.558,55.878L15.039,55.878L19.336,51.285L10.541,51.285L10.541,46.861L19.336,46.861L15.039,42.267L20.558,42.267ZZ" style="fill: rgb(255, 204, 51);"/></g></g></g></g></svg>